<?xml version="1.0" encoding="utf-8"?>
<!-- Generator: Adobe Illustrator 28.3.0, SVG Export Plug-In . SVG Version: 6.00 Build 0)  -->
<svg version="1.1" id="Layer_1" xmlns="http://www.w3.org/2000/svg" xmlns:xlink="http://www.w3.org/1999/xlink" x="0px" y="0px"
	 viewBox="0 0 2500 2500" style="enable-background:new 0 0 2500 2500;" xml:space="preserve">
<style type="text/css">
	.st0{display:none;}
	.st1{display:inline;fill:#00FFFF;}
	.st2{display:none;fill:#FFFFFF;}
	.st3{fill:#FFFFFF;}
	.st4{fill:#FFFFFF;stroke:#231F20;stroke-width:3;stroke-miterlimit:10;}
	.st5{fill:#231F20;}
	.st6{fill:#FFFFFF;stroke:#231F20;stroke-width:7;stroke-miterlimit:10;}
	.st7{fill:#FFFFFF;stroke:#231F20;stroke-width:5;stroke-miterlimit:10;}
	.st8{fill:#FFFFFF;stroke:#FFFFFF;stroke-miterlimit:10;}
</style>
<g id="Layer_2_00000137127913412401855510000002358296731259815607_" class="st0">
	<rect class="st1" width="2500" height="2500"/>
</g>
<g id="Stay_at_home_1_">
	<g>
		<g>
			<g>
				<path class="st2" d="M1741.4,337.2H800.6c-23.8,0-43,19.2-43,43V1494c0,23.8,19.2,43,43,43h940.9c23.8,0,43-19.2,43-43V380.2
					C1784.4,356.5,1765.2,337.2,1741.4,337.2z"/>
				<path d="M1741.4,1539.2H800.6c-24.9,0-45.2-20.3-45.2-45.2V380.2c0-24.9,20.3-45.2,45.2-45.2h940.9c24.9,0,45.2,20.3,45.2,45.2
					V1494C1786.6,1518.9,1766.3,1539.2,1741.4,1539.2z M800.6,339.4c-22.5,0-40.8,18.3-40.8,40.8V1494c0,22.5,18.3,40.8,40.8,40.8
					h940.9c22.5,0,40.8-18.3,40.8-40.8V380.2c0-22.5-18.3-40.8-40.8-40.8L800.6,339.4L800.6,339.4z"/>
			</g>
			<path d="M1784.4,767.2c-1.2,0-2.2-1-2.2-2.2V629.7c0-1.2,1-2.2,2.2-2.2s2.2,1,2.2,2.2V765
				C1786.6,766.2,1785.6,767.2,1784.4,767.2z"/>
			<g>
				<g>
					<rect x="814.6" y="396.6" class="st2" width="527" height="1080.9"/>
					<path d="M1341.6,1479.8h-527c-1.2,0-2.2-1-2.2-2.2v-1081c0-1.2,1-2.2,2.2-2.2h527c1.2,0,2.2,1,2.2,2.2v1080.9
						C1343.8,1478.8,1342.8,1479.8,1341.6,1479.8z M816.8,1475.4h522.6V398.8H816.8V1475.4z"/>
				</g>
				<g>
					<rect x="1395.9" y="396.6" class="st2" width="331.4" height="1080.9"/>
					<path d="M1727.4,1479.8h-331.4c-1.2,0-2.2-1-2.2-2.2v-1081c0-1.2,1-2.2,2.2-2.2h331.4c1.2,0,2.2,1,2.2,2.2v1080.9
						C1729.6,1478.8,1728.6,1479.8,1727.4,1479.8z M1398.2,1475.4h327V398.8h-327V1475.4z"/>
				</g>
			</g>
		</g>
		<g>
			<rect x="661.1" y="1550.3" class="st3" width="1192.6" height="47.1"/>
			<path d="M1853.7,1599.6H661.1c-1.2,0-2.2-1-2.2-2.2v-47.1c0-1.2,1-2.2,2.2-2.2h1192.6c1.2,0,2.2,1,2.2,2.2v47.1
				C1855.9,1598.6,1854.9,1599.6,1853.7,1599.6z M663.3,1595.2h1188.1v-42.7H663.3V1595.2z"/>
		</g>
		<g>
			<g>
				<path class="st3" d="M1719.5,1430.9c-3.3-1.1-6.8-1.7-10.6-1.7h-8.7v-24.5h-150.4v87.7c0,34.7,28.1,62.8,62.7,62.8h24.9
					c33,0,60-25.5,62.5-57.8h8.9c18.6,0,32.4-16,32.4-34.7v-0.3C1741.3,1447.6,1732.5,1435.3,1719.5,1430.9z M1707.6,1477.9h-7.4
					v-29.2h7.4c8,0,14.4,6.6,14.4,14.6C1722.1,1471.3,1715.6,1477.9,1707.6,1477.9z"/>
				<path d="M1637.5,1557.4h-24.9c-35.8,0-65-29.2-65-65v-87.7c0-1.2,1-2.2,2.2-2.2h150.4c1.2,0,2.2,1,2.2,2.2v22.2h6.4
					c3.9,0,7.7,0.6,11.3,1.8c14.2,4.8,23.3,18,23.3,33.7v0.3c0,20.3-15.5,36.9-34.6,36.9h-6.9
					C1698.4,1532.2,1670.5,1557.4,1637.5,1557.4z M1552,1407v85.5c0,33.4,27.2,60.6,60.5,60.6h24.9c31.4,0,57.9-24.5,60.3-55.8
					c0.1-1.2,1.1-2,2.2-2h8.9c16.9,0,30.2-14.2,30.2-32.4v-0.3c0-13.8-8-25.3-20.3-29.5c-3.1-1.1-6.5-1.6-9.9-1.6h-8.7
					c-1.2,0-2.2-1-2.2-2.2V1407L1552,1407L1552,1407z M1707.6,1480.1h-7.4c-1.2,0-2.2-1-2.2-2.2v-29.2c0-1.2,1-2.2,2.2-2.2h7.4
					c9.2,0,16.7,7.6,16.7,16.8C1724.3,1472.6,1716.8,1480.1,1707.6,1480.1z M1702.4,1475.7h5.2c6.7,0,12.2-5.6,12.2-12.4
					s-5.5-12.4-12.2-12.4h-5.2V1475.7z"/>
			</g>
			<path d="M1637.5,1557.4h-24.9c-35.8,0-65-29.2-65-65v-87.7c0-1.2,1-2.2,2.2-2.2s2.2,1,2.2,2.2v87.7c0,33.4,27.2,60.6,60.5,60.6
				h24.9c31.4,0,57.9-24.5,60.3-55.8c0.1-1.2,1.1-2,2.2-2h8.9c16.9,0,30.2-14.2,30.2-32.4v-0.3c0-6.4-1.7-12.4-5-17.5
				c-0.7-1-0.4-2.4,0.7-3.1s2.4-0.4,3.1,0.7c3.7,5.8,5.7,12.7,5.7,19.9v0.3c0,20.3-15.5,36.9-34.6,36.9h-6.9
				C1698.4,1532.2,1670.5,1557.4,1637.5,1557.4z M1707,1480.1h-4.8c-2.3,0-4.2-1.9-4.2-4.2v-25.2c0-2.3,1.9-4.2,4.2-4.2h5.4
				c4.7,0,9.2,2,12.3,5.6c3.2,3.6,4.8,8.4,4.2,13.1C1723.3,1473.7,1715.9,1480.1,1707,1480.1z M1702.4,1475.7h4.6
				c6.5,0,12.1-4.8,12.8-11c0.4-3.5-0.8-7.1-3.1-9.7c-2.3-2.6-5.6-4.1-9-4.1h-5.2L1702.4,1475.7L1702.4,1475.7z M1719.5,1433.1
				c-0.2,0-0.5,0-0.7-0.1c-3.1-1.1-6.5-1.6-9.9-1.6h-6.6c-2.3,0-4.2-1.9-4.2-4.2V1407h-122.1c-1.2,0-2.2-1-2.2-2.2s1-2.2,2.2-2.2
				h122.3c2.3,0,4.2,1.9,4.2,4.2v20.2h6.4c3.9,0,7.7,0.6,11.3,1.8c1.2,0.4,1.8,1.6,1.4,2.8
				C1721.3,1432.5,1720.4,1433.1,1719.5,1433.1z"/>
			<g>
				
					<ellipse transform="matrix(1 -2.709536e-03 2.709536e-03 1 -3.9894 4.4085)" class="st3" cx="1625" cy="1474.6" rx="28" ry="28"/>
				<path d="M1625,1504.7c-16.7,0-30.2-13.6-30.2-30.2c0-16.7,13.5-30.2,30.2-30.2c16.7,0,30.2,13.6,30.2,30.2
					C1655.2,1491.2,1641.7,1504.7,1625,1504.7z M1625,1448.8c-14.2,0-25.8,11.6-25.8,25.8s11.6,25.8,25.8,25.8
					c14.2,0,25.8-11.6,25.8-25.8C1650.8,1460.3,1639.2,1448.8,1625,1448.8z"/>
			</g>
			<path d="M1630.6,1380.9c-0.4,0-0.8-0.1-1.2-0.3c-0.3-0.2-8.6-5.6-10.6-15.5c-1.4-6.7,0.4-13.6,5.2-20.8
				c13.1-19.3,8.8-27.9,4.3-36.9l-0.4-0.7c-0.6-1.1-0.1-2.4,1-3c1.1-0.6,2.4-0.1,3,1l0.4,0.7c4.7,9.3,10,19.9-4.6,41.4
				c-4.1,6.1-5.7,11.9-4.6,17.3c1.6,8.1,8.6,12.7,8.7,12.7c1,0.7,1.3,2,0.7,3.1C1632,1380.5,1631.3,1380.9,1630.6,1380.9z"/>
		</g>
		<g>
			<path class="st3" d="M1881.5,651.9H1794c-9.6-61.4-62.7-108.4-126.8-108.4c-16.5,0-32.2,3.1-46.7,8.8
				c-32.6-58.9-95.4-98.8-167.5-98.8c-105.7,0-191.4,85.7-191.4,191.4c0,2.3,0.1,4.7,0.2,7h-8.9c-73.8,0-133.6,59.8-133.6,133.6
				s59.8,133.6,133.6,133.6h628.6c73.8,0,133.6-59.8,133.6-133.6C2015.1,711.7,1955.3,651.9,1881.5,651.9z"/>
			<path d="M1895.8,905.1h-628.6c-74.9,0-135.8-60.9-135.8-135.8s60.9-135.8,135.8-135.8h6.6c-0.1-1.6-0.1-3.2-0.1-4.8
				c0-106.8,86.8-193.6,193.6-193.6c69.7,0,134.1,37.6,168.5,98.3c14.7-5.5,30-8.3,45.7-8.3c31.3,0,61.6,11.3,85.3,31.7
				c22.9,19.8,38.3,47,43.4,76.7h85.6c74.9,0,135.8,60.9,135.8,135.8S1970.7,905.1,1895.8,905.1z M1267.2,638
				c-72.4,0-131.4,58.9-131.4,131.3c0,72.4,58.9,131.4,131.4,131.4h628.6c72.4,0,131.4-58.9,131.4-131.3
				c0-72.4-58.9-131.4-131.4-131.4h-87.5c-1.1,0-2-0.8-2.2-1.9c-9.7-61.7-62.1-106.5-124.6-106.5c-15.8,0-31.2,2.9-45.9,8.7
				c-1,0.4-2.2,0-2.7-1c-33.4-60.2-96.8-97.7-165.6-97.7c-104.3,0-189.2,84.9-189.2,189.2c0,2.1,0.1,4.3,0.2,6.4l0,0.5
				c0,0.6-0.2,1.2-0.6,1.6c-0.4,0.4-1,0.7-1.6,0.7L1267.2,638L1267.2,638z"/>
		</g>
	</g>
	<g>
		<g>
			<g>
				<path class="st3" d="M1443.4,2005.3c0,0,51.3,103.5,108.9,153.3c9.7,8.4,24.8,3.8,28.5-8.6c2.1-7.1,4.2-16.6,5.8-29.2
					c6.3-47.3-36.2-170.3-36.2-170.3l-18.9-6.1c-6.6-2.1-13.7,1.9-15.2,8.8l-2,9.2l-22.8-20c-5.2-4.6-13.1-3.9-17.4,1.5
					C1465.5,1954.8,1452,1975.4,1443.4,2005.3z"/>
				<path d="M1563.7,2165c-4.7,0-9.2-1.6-12.8-4.8c-57.3-49.5-108.9-152.9-109.4-154c-0.2-0.5-0.3-1.1-0.1-1.6
					c8.5-29.6,21.7-50.2,31.2-62.2c2.4-3.1,5.9-5,9.9-5.3c3.9-0.4,7.8,0.9,10.7,3.5l19.9,17.5l1.2-5.5c0.8-3.9,3.3-7.2,6.7-9.2
					c3.4-2,7.5-2.4,11.3-1.2l18.9,6.1c0.7,0.2,1.2,0.7,1.4,1.4c1.7,5,42.6,124.1,36.3,171.3c-1.6,11.6-3.5,21.5-5.9,29.6
					c-1.9,6.6-7,11.6-13.6,13.6C1567.4,2164.7,1565.5,2165,1563.7,2165z M1445.7,2005.1c4.8,9.6,53.9,105.2,108,151.8
					c4,3.5,9.2,4.6,14.3,3.1c5.1-1.5,9.1-5.5,10.6-10.6c2.3-7.8,4.2-17.6,5.8-28.9c5.9-43.9-31.6-156.2-35.7-168.3l-17.9-5.8
					c-2.6-0.8-5.4-0.5-7.7,0.8s-4,3.6-4.6,6.3l-2,9.2c-0.2,0.8-0.7,1.4-1.5,1.6c-0.8,0.2-1.6,0.1-2.2-0.4l-22.8-20
					c-2.1-1.8-4.7-2.7-7.4-2.4c-2.7,0.2-5.1,1.6-6.8,3.7C1466.7,1956.8,1454.1,1976.6,1445.7,2005.1z"/>
			</g>
			<path d="M1568.3,2148.3c-0.6,0-1.1-0.2-1.6-0.6c-58.6-58.8-107.6-150.9-108.1-151.9c-0.6-1.1-0.2-2.4,0.9-3
				c1.1-0.6,2.4-0.2,3,0.9c0.5,0.9,49.2,92.4,107.3,150.8c0.9,0.9,0.9,2.3,0,3.1C1569.4,2148.1,1568.9,2148.3,1568.3,2148.3z"/>
			<path d="M1543.3,2067.5c-0.9,0-1.8-0.6-2.1-1.5c-0.4-1.2,0.2-2.4,1.4-2.8l30.6-10.1c1.2-0.4,2.4,0.2,2.8,1.4
				c0.4,1.2-0.2,2.4-1.4,2.8l-30.6,10.1C1543.8,2067.5,1543.6,2067.5,1543.3,2067.5z"/>
			<path d="M1523.2,2034.8c-0.9,0-1.8-0.6-2.1-1.5c-0.4-1.2,0.2-2.4,1.4-2.8l38.5-12.7c1.2-0.4,2.4,0.2,2.8,1.4
				c0.4,1.2-0.2,2.4-1.4,2.8l-38.5,12.7C1523.6,2034.7,1523.4,2034.8,1523.2,2034.8z"/>
		</g>
		<path class="st4" d="M1024.6,1228c3.9-4.2,284.9-125.5,399.7-151.3c114.8-25.8,157.6-26.1,196.7,39.6S1432.8,1540,1432.8,1540
			l-483.6-126.1L1024.6,1228z"/>
		<path class="st5" d="M1296.8,1366.3c-0.3,0-0.6-0.1-0.9-0.2c-1.1-0.5-1.6-1.8-1.1-2.9c54-120.6,143.2-206.7,144.1-207.6
			c0.9-0.8,2.3-0.8,3.1,0.1c0.8,0.9,0.8,2.3-0.1,3.1c-0.9,0.8-89.5,86.4-143.1,206.2C1298.4,1365.8,1297.6,1366.3,1296.8,1366.3z"/>
		<path class="st6" d="M794.7,1388.4c0,0,12.7,130.5,41,157.7c28.2,27.2,367,0,367,0s26.9,44.1,44.5,162s37.2,276.5,66.3,315.3
			l253.6-54.8c0,0-84.1-504.9-142.6-573.6c-58.4-68.7-483.6-79.4-483.6-79.4L794.7,1388.4z"/>
		<path class="st3" d="M1453.9,1459.1c-0.9,0-1.8-0.6-2.1-1.5c-10.6-30.6-20.4-51.2-28.9-61.2c-19.8-23.3-107.5-44.4-253.6-61.3
			c-1.2-0.1-2.1-1.2-1.9-2.4c0.1-1.2,1.3-2.1,2.4-1.9c149.3,17.2,235.6,38.3,256.4,62.8c8.9,10.5,18.9,31.6,29.7,62.6
			c0.4,1.2-0.2,2.4-1.4,2.8C1454.4,1459.1,1454.2,1459.1,1453.9,1459.1z"/>
		<g>
			<g>
				<path class="st3" d="M1264.2,961.1c-9-6.6-21.7-4.3-27.8,5c-31.6,48.2-119.1,181.6-120.1,184.9l43.8,6.2l109-169.9
					C1274.7,978.7,1272.5,967.2,1264.2,961.1z"/>
				<path d="M1160.1,1159.4c-0.1,0-0.2,0-0.3,0l-43.8-6.2c-0.6-0.1-1.2-0.5-1.6-1c-0.3-0.6-0.4-1.2-0.2-1.8
					c1-3.2,66-102.6,120.3-185.5c3.3-5,8.3-8.4,14.3-9.4s11.8,0.3,16.7,3.8c9.2,6.8,11.7,19.6,5.5,29.2l-109,169.9
					C1161.6,1159,1160.9,1159.4,1160.1,1159.4z M1119.9,1149.3l39.2,5.5l108.2-168.7c4.9-7.7,3-17.9-4.3-23.3
					c-3.9-2.8-8.6-3.9-13.3-3.1c-4.7,0.8-8.7,3.5-11.3,7.5C1171.4,1069.2,1128.3,1135.5,1119.9,1149.3z"/>
			</g>
			<g>
				<path class="st3" d="M668.5,1363.3c0,0-45.5-63.6-26.9-206.1c18.6-142.5,64.2-216.4,111.9-233.3c47.7-16.9,243.9,14,259.2,253.3
					L668.5,1363.3z"/>
				<path class="st5" d="M668.5,1365.5c-0.7,0-1.4-0.3-1.8-0.9c-0.5-0.6-45.8-66-27.3-207.7c17-129.9,58.3-215.6,113.4-235.1
					c25.5-9,90.4-4.5,148.6,34c47.3,31.2,105.5,95,113.6,221.3c0.1,0.9-0.4,1.7-1.2,2.1l-344.3,186.1
					C669.2,1365.4,668.9,1365.5,668.5,1365.5z M782.1,922.2c-11.5,0-21.1,1.4-27.8,3.8c-24.4,8.6-47.1,32.3-65.6,68.5
					c-21,40.9-36,95.7-44.8,163c-16.7,127.7,18.7,192.1,25.4,202.9l341.3-184.4c-8.3-123.6-65.2-185.9-111.5-216.5
					C857.6,932.1,812.9,922.2,782.1,922.2z"/>
			</g>
			<path d="M805.6,1262.6c-1.2,0-2.1-0.9-2.2-2.1l-9.5-133.6c-0.1-1.2,0.8-2.3,2-2.4s2.3,0.8,2.4,2.1l9.5,133.6
				c0.1,1.2-0.8,2.3-2,2.4C805.7,1262.6,805.7,1262.6,805.6,1262.6z"/>
			<g>
				<path class="st3" d="M651.9,1326.7c0,0,16.5,119.7,183.8,79.6c167.2-40.1,254.4-195.5,254.4-195.5s97.4-20.8,94.1-84
					c0,0-32.6,8.7-60.3,0c-27.7-8.7-57.7,0.2-69.2,11C975.6,1212,723,1234.2,651.9,1326.7z"/>
				<path d="M772.5,1416.7c-31.1,0-57.3-7.2-78.2-21.4c-38.4-26.2-44.4-66.6-44.6-68.3c-0.1-0.6,0.1-1.2,0.4-1.7
					c39.1-50.9,131.7-80.4,221.2-109c75.1-24,146.1-46.7,181.8-80.1c13.1-12.2,44.1-20.1,71.4-11.5c26.8,8.4,58.8,0.1,59.1,0
					c0.7-0.2,1.3,0,1.9,0.3c0.5,0.4,0.9,1,0.9,1.7c3.2,61.6-84,83.6-94.8,86.1c-3.5,6-25.4,42.3-64.3,82.3
					c-39.2,40.2-104.1,92.6-191,113.4C813.1,1414,791.9,1416.7,772.5,1416.7z M654.3,1327.3c1.1,6.1,8.9,41.4,42.6,64.4
					c32.8,22.4,79.3,26.5,138.3,12.4c164.4-39.4,252.1-192.9,253-194.4c0.3-0.6,0.8-0.9,1.5-1.1c0.9-0.2,92.7-20.5,92.4-79
					c-8.5,1.9-35.2,6.8-58.8-0.7c-27.3-8.6-56.5,0.6-67.1,10.5c-36.4,34.1-107.8,56.9-183.4,81.1
					C784.3,1248.7,692.9,1277.9,654.3,1327.3z"/>
			</g>
			<path d="M1124.6,1156c-2.7,0-5.5-0.1-8.4-0.2c-1.2-0.1-2.2-1.1-2.1-2.3c0.1-1.2,1-2.2,2.3-2.1c48.8,2,65.4-14.2,65.6-14.3
				c0.9-0.9,2.3-0.9,3.1,0c0.9,0.9,0.9,2.2,0,3.1C1184.5,1140.8,1169.2,1156,1124.6,1156z"/>
			<path d="M1119.6,1179.1c-1.1,0-2.2,0-3.3,0c-1.2,0-2.2-1-2.2-2.3s1.1-2.2,2.3-2.2c42.5,0.8,56.3-14.3,56.4-14.4
				c0.8-0.9,2.2-1,3.1-0.2c0.9,0.8,1,2.2,0.2,3.1C1175.5,1163.8,1161.6,1179.1,1119.6,1179.1z"/>
		</g>
		<g>
			<g>
				<path class="st3" d="M824.7,814.3C823.4,816.6,770,908,770,908l-36.9,24.8c13.6,10.3,37.7,25.9,71.3,34.8
					c34.3,9.1,63.4,7.2,80.5,4.9c-1.5-4.7-4-10.7-8.3-17.1c-6.8-10-14.9-16-20.1-19.1c11-18.9,22-37.8,33-56.7L824.7,814.3z"/>
				<path d="M856.6,976.7c-17.8,0-35.4-2.3-52.8-6.9c-26.2-7-50.5-18.8-72-35.2c-0.6-0.4-0.9-1.1-0.9-1.8c0-0.7,0.4-1.4,1-1.8
					l36.5-24.5c4-6.9,53.3-91.1,54.5-93.2c0.3-0.6,0.9-1,1.6-1.1s1.4,0.1,1.9,0.6L891,878c0.7,0.7,0.8,1.8,0.3,2.7l-32,54.9
					c7.5,5,13.9,11.2,19,18.6c3.7,5.4,6.6,11.3,8.6,17.6c0.2,0.6,0.1,1.3-0.2,1.8s-0.9,0.9-1.6,1C875.6,976,866.1,976.7,856.6,976.7
					z M736.9,932.9c20.5,15.1,43.4,26,68,32.6c25.2,6.7,51.1,8.4,76.9,5.2c-1.8-5-4.2-9.6-7.2-14c-5.1-7.5-11.6-13.7-19.5-18.5
					c-1-0.6-1.4-2-0.8-3l32.2-55.2l-61.5-62c-8.6,14.8-51.3,87.8-53.3,91.2c-0.2,0.3-0.4,0.5-0.7,0.7L736.9,932.9z M770,908L770,908
					L770,908z"/>
			</g>
			<path class="st7" d="M978.4,726.4c-24.7-20.2-53.7,0.9-82.5-23.9c-13.2-11.4-14.4-22.1-30.2-28.3c-10.5-4.1-29.2-7-41.6,2.5
				c-15.8,12.1-4.2,30.9-17,73.1c-9,29.6-21.5,42.5-14.5,52.9c7.1,10.5,23.6,2.8,32.2,13.7c11.1,14.1-9.2,36.2-2.8,56.1
				c4.3,13.7,25.2,33.2,77.5,39.8c2.9-8.4,9.8-25,14.3-41.2c14.2-50.8,6.4-70.3,19.2-76.8c19.5-10.1,43,21,57.5,11.6
				C1005.5,796,1003.8,747.2,978.4,726.4z"/>
			<g>
				<path class="st8" d="M859.4,769.5l4.9,14.9c0,0-19.2,47-22.6,64.7c-3.4,17.7,50.7,32.5,50.7,32.5l8.5-6.3l15.1,3.8
					c0,0-0.5-51.7,13.4-86.2C929.5,792.9,903.9,761.9,859.4,769.5z"/>
				<path d="M869.7,770.6c1.7,4.5,3.3,8.6,4.5,13.1c0.1,0.5,0.1,1.1,0,1.5c-3.6,10.2-7.1,20.5-10.5,30.8
					c-3.3,10.3-6.6,20.7-8.9,31.2l-0.4,2c-0.1,0.7-0.1,1.1-0.2,1.6c0.1,1,0.2,2.1,0.7,3.1c0.8,2,2.3,4,4,5.7
					c3.4,3.4,7.6,6.1,11.8,8.5c8.5,4.8,17.7,8.5,26.9,11.5l-1.7,0.4l7.5-6.3l0.1-0.1c0.5-0.4,1-0.4,1.5-0.3l13.2,4.4l-1.7,1.5
					c0-7.4,0.2-14.7,0.6-22c0.4-7.3,1-14.6,1.8-21.9c0.9-7.3,1.9-14.5,3.3-21.8c1.5-7.2,3.3-14.3,5.6-21.3l0.3,2.2
					c-3.5-4.5-7.9-8.5-12.5-11.9c-4.6-3.4-9.6-6.1-14.8-8.1c-5.2-1.9-10.6-3.3-16.1-3.6c-2.7-0.4-5.5-0.2-8.2-0.1
					c-1.5,0-2.4,0.3-3.5,0.2C872,770.9,870.9,770.7,869.7,770.6z M866.3,768.3c1.6-0.5,3.3-1,5-1.4c1.7-0.4,3.7-0.7,5-0.7
					c2.9-0.1,5.8-0.3,8.7,0.1c5.8,0.3,11.6,1.8,17.1,3.8c5.5,2,10.8,5,15.7,8.5c4.9,3.6,9.4,7.7,13.4,12.8c0.5,0.6,0.6,1.4,0.4,2.1
					l0,0.1c-2.3,6.7-4.2,13.6-5.7,20.6c-1.5,7-2.6,14.2-3.6,21.3c-0.9,7.2-1.6,14.4-2.1,21.7c-0.5,7.2-0.8,14.5-0.9,21.8
					c0,0.9-0.6,1.6-1.4,1.5c-0.1,0-0.2,0-0.3,0l-13.5-3.1l1.6-0.4l-7.5,6.3l0,0c-0.5,0.4-1.1,0.5-1.7,0.3
					c-9.5-3.1-18.7-6.8-27.6-11.8c-4.4-2.5-8.8-5.3-12.7-9.2c-1.9-2-3.8-4.2-5-7.2c-0.6-1.5-0.9-3.2-1-4.9c0.1-0.8,0.1-1.8,0.3-2.5
					l0.4-2.1c2.4-11,5.7-21.3,9-31.7c3.4-10.4,6.9-20.7,10.5-30.9l0,1.5C868.9,779.6,867.5,773.8,866.3,768.3z"/>
			</g>
			<g>
				<path class="st3" d="M851.8,815.3c0,0,4.7-34.3-11.3-33.2C824.4,783.2,820.1,821.2,851.8,815.3z"/>
				<path d="M845.5,818.1c-8.3,0-13-3.4-15.6-6.7c-5.1-6.4-4.7-15.5-2-21.6c2.6-5.8,7.2-9.5,12.4-9.9c3.5-0.2,6.5,0.9,8.8,3.4
					c8,8.6,5,31.4,4.9,32.3c-0.1,1-0.8,1.7-1.8,1.9C849.7,817.9,847.5,818.1,845.5,818.1z M851.8,815.3L851.8,815.3L851.8,815.3z
					 M841.3,784.3c-0.2,0-0.4,0-0.6,0c-3.6,0.3-6.8,2.9-8.7,7.3c-2.2,4.9-2.6,12.1,1.4,17.1c3.3,4.2,9,5.8,16.5,4.7
					c0.7-7,1.1-21.7-3.9-27.1C844.7,784.9,843.1,784.3,841.3,784.3z"/>
			</g>
		</g>
	</g>
	<g>
		<g>
			<g>
				<path class="st3" d="M959.6,1736.6c-10.8-22.1-11.8-44.4,0-66.9l-8.5-10.1l-231.1,7.6l8,73.4l223.7,2.6L959.6,1736.6z"/>
				<path d="M951.7,1745.3C951.7,1745.3,951.7,1745.3,951.7,1745.3l-223.7-2.6c-1.1,0-2-0.9-2.2-2l-8-73.4c-0.1-0.6,0.1-1.2,0.5-1.7
					c0.4-0.5,1-0.7,1.6-0.8l231.1-7.6c0.7,0,1.3,0.3,1.8,0.8l8.5,10.1c0.6,0.7,0.7,1.7,0.3,2.4c-11,21-11,42.3,0,64.9
					c0.5,0.9,0.2,2-0.6,2.7l-7.9,6.5C952.7,1745.1,952.2,1745.3,951.7,1745.3z M730,1738.3l220.9,2.6l5.9-4.9
					c-10.5-22.7-10.5-44.9,0.1-66l-6.8-8.2l-227.6,7.5L730,1738.3z"/>
			</g>
			<g>
				<path class="st3" d="M535,1651.5h304.5h124.3c5,0,9.1,4.1,9.1,9.1c0,5-4.1,9.1-9.1,9.1H766.7c-14.4,0-26.1,11.7-26.1,26.1v14.7
					c0,14.4,11.7,26.1,26.1,26.1h197.2c5,0,9.1,4.1,9.1,9.1c0,5-4.1,9.1-9.1,9.1H535c-26.6,0-48.2-21.6-48.2-48.2v-6.9
					C486.8,1673,508.4,1651.5,535,1651.5z"/>
				<path d="M963.9,1757H535c-27.8,0-50.4-22.6-50.4-50.4v-6.9c0-27.8,22.6-50.4,50.4-50.4h428.9c6.2,0,11.3,5.1,11.3,11.3
					c0,6.2-5.1,11.3-11.3,11.3H766.7c-13.2,0-23.9,10.7-23.9,23.9v14.7c0,13.2,10.7,23.9,23.9,23.9h197.2c6.2,0,11.3,5.1,11.3,11.3
					C975.2,1751.9,970.1,1757,963.9,1757z M535,1653.7c-25.4,0-46,20.6-46,46v6.9c0,25.4,20.6,46,46,46h428.9c3.8,0,6.9-3.1,6.9-6.9
					s-3.1-6.9-6.9-6.9H766.7c-15.6,0-28.4-12.7-28.4-28.4v-14.7c0-15.6,12.7-28.4,28.4-28.4h197.2c3.8,0,6.9-3.1,6.9-6.9
					s-3.1-6.9-6.9-6.9L535,1653.7L535,1653.7z"/>
			</g>
			<path d="M951.1,1702.2H821c-1.2,0-2.2-1-2.2-2.2s1-2.2,2.2-2.2h130.1c1.2,0,2.2,1,2.2,2.2
				C953.3,1701.2,952.4,1702.2,951.1,1702.2z"/>
			<path d="M952,1721.8H846.2c-1.2,0-2.2-1-2.2-2.2s1-2.2,2.2-2.2H952c1.2,0,2.2,1,2.2,2.2S953.2,1721.8,952,1721.8z"/>
		</g>
		<g>
			<g>
				<path class="st3" d="M976.2,1861.5H588.9v-94.9h387.4C964.8,1798.6,964.5,1830.2,976.2,1861.5z"/>
				<path d="M976.2,1863.7H588.9c-1.2,0-2.2-1-2.2-2.2v-94.9c0-1.2,1-2.2,2.2-2.2h387.4c0.7,0,1.4,0.3,1.8,0.9
					c0.4,0.6,0.5,1.3,0.3,2c-11.3,31.8-11.4,63.2,0,93.4c0.3,0.7,0.2,1.4-0.2,2C977.6,1863.3,976.9,1863.7,976.2,1863.7z
					 M591.1,1859.2h382c-10.3-29.3-10.3-59.7,0-90.5h-382V1859.2z"/>
			</g>
			<g>
				<path class="st3" d="M635.5,1771.2h343.4c4.1,0,7.5-3.3,7.5-7.5s-3.3-7.5-7.5-7.5H533.3c-18.2,0-32.9,14.7-32.9,32.9v51.7
					c0,18.2,14.7,32.9,32.9,32.9h445.6c4.1,0,7.5-3.3,7.5-7.5s-3.3-7.5-7.5-7.5H635.5c-12.8,0-23.2-10.4-23.2-23.2v-41
					C612.3,1781.6,622.7,1771.2,635.5,1771.2z"/>
				<path d="M978.9,1875.9H533.3c-19.3,0-35.1-15.7-35.1-35.1v-51.7c0-19.3,15.7-35.1,35.1-35.1h445.6c5.3,0,9.7,4.3,9.7,9.7
					s-4.3,9.7-9.7,9.7H635.5c-11.6,0-21,9.4-21,21v41c0,11.6,9.4,21,21,21h343.4c5.3,0,9.7,4.3,9.7,9.7
					C988.6,1871.5,984.2,1875.9,978.9,1875.9z M533.3,1758.5c-16.9,0-30.6,13.8-30.6,30.7v51.7c0,16.9,13.8,30.7,30.6,30.7h445.6
					c2.9,0,5.3-2.4,5.3-5.3s-2.4-5.3-5.3-5.3H635.5c-14,0-25.4-11.4-25.4-25.4v-41c0-14,11.4-25.4,25.4-25.4h343.4
					c2.9,0,5.3-2.4,5.3-5.3s-2.4-5.3-5.3-5.3L533.3,1758.5L533.3,1758.5z"/>
			</g>
			<path d="M969.4,1791.3h-57.2c-1.2,0-2.2-1-2.2-2.2s1-2.2,2.2-2.2h57.2c1.2,0,2.2,1,2.2,2.2
				C971.6,1790.3,970.6,1791.3,969.4,1791.3z"/>
			<path d="M968.2,1804H792c-1.2,0-2.2-1-2.2-2.2s1-2.2,2.2-2.2h176.1c1.2,0,2.2,1,2.2,2.2S969.4,1804,968.2,1804z"/>
			<path d="M968.2,1830.4H816.6c-1.2,0-2.2-1-2.2-2.2s1-2.2,2.2-2.2h151.6c1.2,0,2.2,1,2.2,2.2
				C970.4,1829.4,969.4,1830.4,968.2,1830.4z"/>
		</g>
		<g>
			<g>
				<path class="st3" d="M501.9,1970.5c12.1-25,13.3-50.2,0-75.6l9.6-11.4l261.1,8.6l-9,82.9l-252.7,2.9L501.9,1970.5z"/>
				<path d="M510.8,1980.1c-0.5,0-1-0.2-1.4-0.5l-8.9-7.4c-0.8-0.7-1-1.8-0.6-2.7c12.5-25.7,12.5-49.8,0-73.6
					c-0.4-0.8-0.3-1.8,0.3-2.4l9.6-11.4c0.4-0.5,1.1-0.8,1.8-0.8l261.1,8.6c0.6,0,1.2,0.3,1.6,0.8c0.4,0.5,0.6,1.1,0.5,1.7l-9,82.9
					c-0.1,1.1-1.1,2-2.2,2L510.8,1980.1C510.9,1980.1,510.8,1980.1,510.8,1980.1z M504.7,1969.9l7,5.8l250-2.9l8.5-78.6l-257.6-8.5
					l-7.9,9.5C516.6,1919.1,516.7,1944.3,504.7,1969.9z"/>
			</g>
			<g>
				<path class="st3" d="M981.7,1874.3H637.6H497.1c-5.7,0-10.3,4.6-10.3,10.3c0,5.7,4.6,10.3,10.3,10.3h222.8
					c16.3,0,29.5,13.2,29.5,29.5v16.6c0,16.3-13.2,29.5-29.5,29.5H497.1c-5.7,0-10.3,4.6-10.3,10.3c0,5.7,4.6,10.3,10.3,10.3h484.6
					c30.1,0,54.5-24.4,54.5-54.5v-7.8C1036.2,1898.7,1011.8,1874.3,981.7,1874.3z"/>
				<path d="M981.7,1993.2H497.1c-6.9,0-12.5-5.6-12.5-12.5s5.6-12.5,12.5-12.5h222.8c15.1,0,27.3-12.3,27.3-27.3v-16.6
					c0-15.1-12.3-27.3-27.3-27.3H497.1c-6.9,0-12.5-5.6-12.5-12.5s5.6-12.5,12.5-12.5h484.6c31.2,0,56.7,25.4,56.7,56.7v7.8
					C1038.4,1967.8,1012.9,1993.2,981.7,1993.2z M497.1,1972.7c-4.4,0-8,3.6-8,8s3.6,8,8,8h484.6c28.8,0,52.3-23.4,52.3-52.2v-7.8
					c0-28.8-23.4-52.2-52.3-52.2H497.1c-4.4,0-8,3.6-8,8s3.6,8,8,8h222.8c17.5,0,31.8,14.2,31.8,31.8v16.6
					c0,17.5-14.2,31.8-31.8,31.8L497.1,1972.7L497.1,1972.7z"/>
			</g>
			<path d="M631,1931.4H511.5c-1.2,0-2.2-1-2.2-2.2s1-2.2,2.2-2.2H631c1.2,0,2.2,1,2.2,2.2C633.2,1930.4,632.2,1931.4,631,1931.4z"
				/>
			<path d="M656.7,1953.5H510.6c-1.2,0-2.2-1-2.2-2.2s1-2.2,2.2-2.2h146.1c1.2,0,2.2,1,2.2,2.2S657.9,1953.5,656.7,1953.5z"/>
		</g>
	</g>
	<g>
		<g>
			<path class="st3" d="M1757.4,1585.8c22.7,14.6,172.2,102.5,351.3,17.5c0.6-0.3,1.2-0.8,1.5-1.5c6.9-14.3,83.1-182-26.5-421.6
				c-0.9-1.9-3.2-2.5-4.8-1.2c-20.1,15.7-133.5,101.2-223.5,99c-2.1-0.1-3.7,1.9-3.1,3.9c6.5,23.7,31.5,147-95.6,299.2
				C1755.4,1582.6,1755.8,1584.8,1757.4,1585.8z"/>
			<path d="M1950.4,1642.1c-25.3,0-50.8-2.7-76.5-8.1c-62.8-13.2-106-38.8-117.8-46.4c-1.3-0.8-2.2-2.2-2.4-3.7
				c-0.2-1.5,0.2-3.1,1.2-4.3c126.5-151.5,101.4-274.2,95.1-297.2c-0.4-1.7-0.1-3.3,0.9-4.7c1.1-1.3,2.7-2.1,4.4-2.1
				c88.9,2.2,200.5-81.7,222-98.5c1.3-1,2.9-1.4,4.5-1c1.6,0.4,3,1.5,3.7,3c46.1,100.6,65.3,200.3,57.2,296.4
				c-6.2,73.5-26.6,118.8-30.7,127.1c-0.5,1.1-1.4,2-2.5,2.5C2057.9,1629.8,2004.6,1642.1,1950.4,1642.1z M1855.3,1280.1
				c-0.4,0-0.7,0.2-0.8,0.4c-0.1,0.2-0.2,0.4-0.2,0.8c6.4,23.4,31.9,148.1-96,301.2c-0.2,0.3-0.2,0.6-0.2,0.8s0.1,0.4,0.4,0.6
				c11.6,7.4,54.3,32.7,116.3,45.8c79.5,16.7,157.9,7.2,232.9-28.5c0.2-0.1,0.4-0.2,0.4-0.4c4-8.2,24.1-52.8,30.2-125.5
				c8-95.3-11.1-194.3-56.8-294.2c-0.2-0.4-0.5-0.5-0.7-0.6c-0.2,0-0.5-0.1-0.8,0.2c-21.4,16.8-131.7,99.5-221.4,99.5
				C1857.6,1280.2,1856.5,1280.2,1855.3,1280.1C1855.3,1280.1,1855.3,1280.1,1855.3,1280.1z"/>
		</g>
		<path d="M1888.7,1319.3c-1,0-1.9-0.7-2.2-1.8c-0.2-1.2,0.5-2.4,1.7-2.6c1-0.2,97-20.8,167-72.7c1-0.7,2.4-0.5,3.1,0.5
			s0.5,2.4-0.5,3.1c-70.8,52.5-167.7,73.3-168.7,73.5C1889,1319.3,1888.8,1319.3,1888.7,1319.3z"/>
		<path d="M1957.8,1344.3c-1,0-1.9-0.7-2.2-1.7c-0.3-1.2,0.5-2.4,1.7-2.7c45.7-10.4,85.9-27.3,119.5-50.3c1-0.7,2.4-0.4,3.1,0.6
			s0.4,2.4-0.6,3.1c-34,23.3-74.7,40.5-121,51C1958.1,1344.3,1957.9,1344.3,1957.8,1344.3z"/>
		<path d="M1887.8,1353.9c-1.2,0-2.2-1-2.2-2.2c0-1.2,1-2.2,2.2-2.2c0.2,0,14.8-0.2,37.3-3.5c1.2-0.2,2.3,0.7,2.5,1.9
			s-0.7,2.3-1.9,2.5C1902.9,1353.7,1888,1353.9,1887.8,1353.9C1887.8,1353.9,1887.8,1353.9,1887.8,1353.9z"/>
		<path d="M1909.1,1392.3c-14.8,0-23.4-1-23.7-1c-1.2-0.2-2.1-1.2-1.9-2.5c0.2-1.2,1.2-2.1,2.5-1.9c0.9,0.1,94.6,10.6,199.6-39.9
			c1.1-0.5,2.4-0.1,3,1c0.5,1.1,0.1,2.4-1,3C2012.9,1386.9,1943.9,1392.3,1909.1,1392.3z"/>
		<path d="M1937.7,1432.5c-37.9,0-61.7-5.2-62.2-5.3c-1.2-0.3-1.9-1.4-1.7-2.7c0.3-1.2,1.4-1.9,2.7-1.7c1,0.2,98.9,21.4,216.4-23.7
			c1.1-0.4,2.4,0.1,2.9,1.3c0.4,1.1-0.1,2.4-1.3,2.9C2033.5,1426.8,1977.7,1432.5,1937.7,1432.5z"/>
		<path d="M2024.7,1478.7c-1.1,0-2-0.8-2.2-1.9c-0.2-1.2,0.7-2.3,1.9-2.5c23.6-3.3,46.1-9.2,66.8-17.3c1.1-0.4,2.4,0.1,2.9,1.2
			c0.4,1.1-0.1,2.4-1.2,2.9c-21.1,8.3-43.9,14.2-67.8,17.6C2024.9,1478.7,2024.8,1478.7,2024.7,1478.7z"/>
		<path d="M1975,1482.1c-62.8,0-110.9-15.4-111.4-15.6c-1.2-0.4-1.8-1.6-1.4-2.8s1.6-1.8,2.8-1.4c0.5,0.2,53.3,17.1,120.4,15.2
			c1.3,0,2.2,0.9,2.3,2.2c0,1.2-0.9,2.2-2.2,2.3C1982.1,1482.1,1978.5,1482.1,1975,1482.1z"/>
	</g>
	<g>
		<g>
			<path class="st3" d="M490.5,678.9l88.1,85.1c8.1,7.8,21.1,7.5,28.8-0.8c26.6-28.7,89.7-90.4,168.8-125.2c11.4-5,15.7-19,8.9-29.5
				l-78.3-120.4c-5.9-9-17.8-11.9-27.1-6.4C650,499.2,583.1,545.6,489.5,651C482.3,659.1,482.8,671.4,490.5,678.9z"/>
			<path d="M592.6,771.9c-5.8,0-11.3-2.2-15.6-6.3L489,680.5c-8.7-8.4-9.2-22-1.2-31C580.6,545,647.1,498.4,678.5,479.9
				c10.3-6.1,23.5-3,30.1,7.1l78.3,120.4c3.6,5.5,4.6,12.3,2.7,18.6c-1.9,6.3-6.5,11.5-12.5,14.1C697.2,675.2,632.9,739,609,764.8
				c-4.1,4.4-9.7,7-15.8,7.1C593.1,771.9,592.8,771.9,592.6,771.9z M492.1,677.3l88.1,85.1c3.5,3.4,8.1,5.2,13,5
				c4.8-0.1,9.3-2.2,12.6-5.7c24.1-26,88.9-90.3,169.6-125.7c4.9-2.1,8.5-6.3,10-11.3c1.5-5,0.7-10.5-2.2-14.9l-78.3-120.4
				c-5.3-8.1-15.8-10.6-24.1-5.7c-31.2,18.4-97.3,64.8-189.6,168.8C484.7,659.7,485.1,670.6,492.1,677.3z"/>
		</g>
		<g>
			<g>
				<path class="st3" d="M431.5,789.9l88.1,85.1c8.1,7.8,21.1,7.5,28.8-0.8c26.6-28.7,89.7-90.4,168.8-125.2
					c11.4-5,15.7-19,8.9-29.5l-78.3-120.4c-5.9-9-17.8-11.9-27.1-6.4C591,610.2,524,656.6,430.4,762
					C423.3,770.1,423.7,782.4,431.5,789.9z"/>
				<path d="M533.6,882.9c-5.8,0-11.3-2.2-15.6-6.3L430,791.5c-8.7-8.4-9.2-22-1.2-31C521.6,656,588.1,609.4,619.5,590.9
					c10.3-6.1,23.5-3,30.1,7.1l78.3,120.4c3.6,5.5,4.6,12.3,2.7,18.6c-1.9,6.3-6.5,11.5-12.5,14.1C638.1,786.2,573.9,850,550,875.8
					c-4.1,4.4-9.7,7-15.8,7.1C534,882.9,533.8,882.9,533.6,882.9z M433.1,788.3l88.1,85.1c3.5,3.4,8.1,5.2,13,5
					c4.8-0.1,9.3-2.2,12.6-5.7c24.1-26,88.9-90.3,169.6-125.7c4.9-2.1,8.5-6.3,10-11.3c1.5-5,0.7-10.5-2.2-14.9l-78.3-120.4
					c-5.3-8.1-15.8-10.6-24.1-5.7c-31.2,18.4-97.3,64.8-189.6,168.8C425.7,770.7,426.1,781.6,433.1,788.3z"/>
			</g>
			<path d="M450.1,782.4c-1.1,0-2-0.8-2.2-1.9c-0.2-1.2,0.6-2.3,1.9-2.5L558,761.7c19.1-2.9,34.8-16,40.8-34.2l36-108
				c0.4-1.2,1.6-1.8,2.8-1.4c1.2,0.4,1.8,1.6,1.4,2.8l-36,108c-6.6,19.8-23.6,34-44.4,37.2l-108.3,16.3
				C450.3,782.4,450.2,782.4,450.1,782.4z"/>
		</g>
	</g>
	<g>
		<g>
			<g>
				<path class="st3" d="M2050.7,1641.4l-144.2-83.5c-5.9-3.4-13.8-1.6-17.6,4.1l-181,269.6c-3.8,5.7-2.1,13,3.8,16.4l144.2,83.5
					c5.9,3.4,13.8,1.6,17.6-4.1l181-269.5C2058.3,1652.2,2056.6,1644.8,2050.7,1641.4z"/>
				<path d="M1862.3,1935.4c-2.6,0-5.2-0.7-7.6-2l-144.2-83.5c-3.4-2-5.7-5.1-6.6-8.8c-0.9-3.7-0.1-7.6,2.1-10.8l181-269.5
					c4.4-6.6,13.6-8.7,20.5-4.8l144.2,83.5c3.4,2,5.7,5.1,6.6,8.8c0.9,3.7,0.1,7.6-2.1,10.8l-181,269.6
					C1872.4,1933,1867.4,1935.4,1862.3,1935.4z M1900,1558.4c-3.6,0-7.1,1.7-9.2,4.8l-181,269.6c-1.5,2.2-2,4.8-1.4,7.3
					s2.2,4.6,4.5,5.9l144.2,83.5c4.9,2.8,11.4,1.3,14.6-3.4l181-269.6c1.5-2.2,2-4.8,1.4-7.3c-0.6-2.5-2.2-4.6-4.5-5.9l-144.2-83.5
					C1903.8,1558.9,1901.9,1558.4,1900,1558.4z"/>
			</g>
			<path d="M1936.8,1575.4l-3.9,5.8c-4.1,6.1-2.3,14.1,4.1,17.7l60.6,35.1c6.4,3.7,14.8,1.7,18.9-4.4l3.9-5.8L1936.8,1575.4z"/>
			<path class="st3" d="M1970.8,1611.3c-2.3-1.3-3-4.2-1.5-6.4c1.5-2.2,4.6-2.9,6.9-1.6s3,4.2,1.5,6.4
				C1976.2,1611.9,1973.1,1612.6,1970.8,1611.3z"/>
		</g>
		<g>
			<g>
				<polygon points="2017.5,1682.4 1881.5,1603.6 1889.5,1591.8 2025.5,1670.5 				"/>
				<path d="M1958.7,1772.1c-0.4,0-0.8-0.1-1.1-0.3l-136-78.8c-0.5-0.3-0.9-0.8-1.1-1.4c-0.1-0.6,0-1.2,0.3-1.7l53-78.9
					c0.7-1,1.9-1.3,2.9-0.7l136,78.8c0.5,0.3,0.9,0.8,1.1,1.4c0.1,0.6,0,1.2-0.3,1.7l-53,78.9
					C1960.1,1771.8,1959.4,1772.1,1958.7,1772.1z M1825.9,1690.4L1958,1767l50.5-75.2l-132.2-76.6L1825.9,1690.4z"/>
				<path class="st3" d="M2015.8,1673.2c-1.1,1.6-3.2,2.1-4.9,1.1s-2.1-3-1.1-4.6c1.1-1.6,3.2-2.1,4.9-1.1
					S2016.9,1671.6,2015.8,1673.2z"/>
			</g>
			<path d="M1922.1,1826.7c-0.4,0-0.8-0.1-1.1-0.3l-136-78.8c-0.5-0.3-0.9-0.8-1.1-1.4c-0.1-0.6,0-1.2,0.3-1.7l33-49.2
				c0.7-1,1.9-1.3,2.9-0.7l136,78.8c0.5,0.3,0.9,0.8,1.1,1.4c0.1,0.6,0,1.2-0.3,1.7l-33,49.2
				C1923.5,1826.4,1922.8,1826.7,1922.1,1826.7z M1789.2,1745l132.2,76.6l30.5-45.5l-132.2-76.6L1789.2,1745z"/>
			<path d="M1884.2,1883.1c-0.4,0-0.8-0.1-1.1-0.3l-136-78.8c-0.5-0.3-0.9-0.8-1.1-1.4c-0.1-0.6,0-1.2,0.3-1.7l33-49.2
				c0.7-1,1.9-1.3,2.9-0.7l136,78.8c0.5,0.3,0.9,0.8,1.1,1.4c0.1,0.6,0,1.2-0.3,1.7l-33,49.2
				C1885.6,1882.7,1884.9,1883.1,1884.2,1883.1z M1751.4,1801.4l132.2,76.6l30.5-45.5l-132.2-76.6L1751.4,1801.4z"/>
			<path d="M1857.6,1922.8c-0.4,0-0.8-0.1-1.1-0.3l-136-78.8c-0.5-0.3-0.9-0.8-1.1-1.4c-0.1-0.6,0-1.2,0.3-1.7l21.8-32.5
				c0.7-1,1.9-1.3,2.9-0.7l136,78.8c0.5,0.3,0.9,0.8,1.1,1.4c0.1,0.6,0,1.2-0.3,1.7l-21.8,32.5
				C1859,1922.4,1858.3,1922.8,1857.6,1922.8z M1724.7,1841.1l132.2,76.6l19.4-28.8l-132.2-76.6L1724.7,1841.1z"/>
		</g>
	</g>
	<g>
		<path d="M1801.9,931.4c-0.3,0-0.6,0-0.8-0.2c-8.5-3.4-17.7-8.9-18.1-9.2c-1.1-0.6-1.4-2-0.8-3c0.6-1,2-1.4,3-0.8
			c0.1,0.1,9.3,5.6,17.5,8.8c1.1,0.5,1.7,1.7,1.2,2.9C1803.6,930.9,1802.8,931.4,1801.9,931.4z"/>
		<path class="st3" d="M1886.5,1060.3l33.7,19.3c2.8,1.6,6.3,0.6,7.9-2.2L2032.2,894c1.8-3.1,0.7-7.1-2.4-8.9l-85.3-48.8
			L1886.5,1060.3z"/>
		<g>
			<path class="st3" d="M1886.5,1060.3l33.7,19.3c1.6,0.9,3.5,1,5.2,0.3c0,0,2.7-1.2,5.7-6.5c2.6-4.5,100.4-178,100.4-178
				c2.2-3.8,1.1-7.8-2-9.5L1944,837L1886.5,1060.3z"/>
			<path d="M1923,1082.6c-1.4,0-2.7-0.4-3.9-1.1l-33.7-19.3c-1.1-0.6-1.4-2-0.8-3c0.6-1.1,2-1.4,3-0.8l33.7,19.3
				c1,0.6,2.1,0.6,3.2,0.2l0,0c0,0,2.2-1.2,4.6-5.5c2.5-4.5,99.4-176.3,100.4-178c1.5-2.6,1-5.3-1.2-6.5l-85.3-48.8
				c-1.1-0.6-1.4-2-0.8-3c0.6-1.1,2-1.4,3-0.8l85.3,48.8c4.3,2.5,5.5,7.9,2.9,12.6c-1,1.7-97.8,173.5-100.4,178
				c-3.3,5.7-6.4,7.2-6.7,7.4C1925.2,1082.3,1924.1,1082.6,1923,1082.6z"/>
		</g>
		<g>
			<path class="st3" d="M1980.3,952.7l-99.8,115.7c-1.4,1.6-3.8,2-5.6,1L1678,956.8c-2.4-1.4-3-4.7-1.2-6.9l151.4-175.4
				c1.4-1.6,3.8-2,5.6-1l196.8,112.5c2.4,1.4,3,4.7,1.2,6.9l-41.5,48.1L1980.3,952.7z"/>
			<path d="M1877,1072.2c-1.1,0-2.3-0.3-3.3-0.9l-196.8-112.5c-1.7-1-2.9-2.7-3.3-4.7c-0.3-2,0.2-4,1.5-5.5l151.4-175.4
				c2.1-2.4,5.6-3,8.4-1.5l196.8,112.5c1.7,1,2.9,2.7,3.3,4.7c0.3,2-0.2,4-1.5,5.5l-41.5,48.1c-0.8,0.9-2.2,1-3.1,0.2
				c-0.9-0.8-1-2.2-0.2-3.1l41.5-48.1c0.4-0.5,0.6-1.2,0.5-1.9c-0.1-0.4-0.3-1.1-1.1-1.6l-196.8-112.5c-0.9-0.5-2.1-0.3-2.8,0.5
				l-151.4,175.4c-0.4,0.5-0.6,1.2-0.5,1.9c0.1,0.4,0.3,1.1,1.1,1.6l196.8,112.5c0.9,0.5,2.1,0.3,2.8-0.5l99.8-115.7
				c0.8-0.9,2.2-1,3.1-0.2c0.9,0.8,1,2.2,0.2,3.1l-99.8,115.7C1880.8,1071.4,1878.9,1072.2,1877,1072.2z"/>
		</g>
		<path d="M1843.6,1055.3c-0.2,0-0.4,0.1-0.6,0.1L1843.6,1055.3z"/>
		<g>
			<g>
				<polygon class="st3" points="1796.2,837.2 1833.7,858.6 1806.7,890 1769.1,868.6 				"/>
				<path d="M1806.7,892.2c-0.4,0-0.8-0.1-1.1-0.3l-37.5-21.5c-0.6-0.3-1-0.9-1.1-1.5c-0.1-0.7,0.1-1.3,0.5-1.8l27.1-31.4
					c0.7-0.8,1.9-1,2.8-0.5l37.5,21.5c0.6,0.3,1,0.9,1.1,1.5c0.1,0.7-0.1,1.3-0.5,1.8l-27.1,31.4
					C1807.9,892,1807.3,892.2,1806.7,892.2z M1772.6,868l33.6,19.2l24.1-28l-33.6-19.2L1772.6,868z"/>
			</g>
			<g>
				<polygon class="st3" points="1763.2,875.4 1800.7,896.8 1773.6,928.2 1736.1,906.7 				"/>
				<path d="M1773.6,930.4c-0.4,0-0.8-0.1-1.1-0.3l-37.5-21.5c-0.6-0.3-1-0.9-1.1-1.5c-0.1-0.7,0.1-1.3,0.5-1.8l27.1-31.4
					c0.7-0.8,1.8-1,2.8-0.5l37.5,21.5c0.6,0.3,1,0.9,1.1,1.5c0.1,0.7-0.1,1.3-0.5,1.8l-27.1,31.4
					C1774.9,930.1,1774.2,930.4,1773.6,930.4z M1739.5,906.1l33.6,19.2l24.1-28l-33.6-19.2L1739.5,906.1z"/>
			</g>
			<g>
				<polygon class="st3" points="1841.4,863 1878.9,884.5 1851.8,915.8 1814.3,894.4 				"/>
				<path d="M1851.8,918c-0.4,0-0.8-0.1-1.1-0.3l-37.5-21.5c-0.6-0.3-1-0.9-1.1-1.5c-0.1-0.7,0.1-1.3,0.5-1.8l27.1-31.4
					c0.7-0.8,1.8-1,2.8-0.5l37.5,21.5c0.6,0.3,1,0.9,1.1,1.5c0.1,0.7-0.1,1.3-0.5,1.8l-27.1,31.4C1853,917.8,1852.4,918,1851.8,918z
					 M1817.7,893.8l33.6,19.2l24.1-28l-33.6-19.2L1817.7,893.8z"/>
			</g>
			<g>
				<polygon class="st3" points="1808.3,901.2 1845.8,922.6 1818.7,954 1781.2,932.5 				"/>
				<path d="M1818.7,956.2c-0.4,0-0.8-0.1-1.1-0.3l-37.5-21.5c-0.6-0.3-1-0.9-1.1-1.5c-0.1-0.7,0.1-1.3,0.5-1.8l27.1-31.4
					c0.7-0.8,1.9-1,2.8-0.5l37.5,21.5c0.6,0.3,1,0.9,1.1,1.5c0.1,0.7-0.1,1.3-0.5,1.8l-27.1,31.4
					C1820,955.9,1819.4,956.2,1818.7,956.2z M1784.7,932l33.6,19.2l24.1-28l-33.6-19.2L1784.7,932z"/>
			</g>
			<g>
				<polygon class="st3" points="1886.5,888.8 1924,910.3 1896.9,941.6 1859.4,920.2 				"/>
				<path d="M1896.9,943.8c-0.4,0-0.8-0.1-1.1-0.3l-37.5-21.5c-0.6-0.3-1-0.9-1.1-1.5c-0.1-0.7,0.1-1.3,0.5-1.8l27.1-31.4
					c0.7-0.8,1.9-1,2.8-0.5l37.5,21.5c0.6,0.3,1,0.9,1.1,1.5c0.1,0.7-0.1,1.3-0.5,1.8l-27.1,31.4
					C1898.1,943.6,1897.5,943.8,1896.9,943.8z M1862.8,919.6l33.6,19.2l24.1-28l-33.6-19.2L1862.8,919.6z"/>
			</g>
			<g>
				<polygon class="st3" points="1853.4,927 1890.9,948.4 1863.9,979.8 1826.3,958.3 				"/>
				<path d="M1863.9,982c-0.4,0-0.8-0.1-1.1-0.3l-37.5-21.5c-0.6-0.3-1-0.9-1.1-1.5c-0.1-0.7,0.1-1.3,0.5-1.8l27.1-31.4
					c0.7-0.8,1.9-1,2.8-0.5l37.5,21.5c0.6,0.3,1,0.9,1.1,1.5c0.1,0.7-0.1,1.3-0.5,1.8l-27.1,31.4
					C1865.1,981.7,1864.5,982,1863.9,982z M1829.8,957.8l33.6,19.2l24.1-28l-33.6-19.2L1829.8,957.8z"/>
			</g>
			<g>
				<polygon class="st3" points="1931.6,914.6 1969.1,936.1 1942,967.4 1904.5,946 				"/>
				<path d="M1942,969.7c-0.4,0-0.8-0.1-1.1-0.3l-37.5-21.5c-0.6-0.3-1-0.9-1.1-1.5c-0.1-0.7,0.1-1.3,0.5-1.8l27.1-31.4
					c0.7-0.8,1.8-1,2.8-0.5l37.5,21.5c0.6,0.3,1,0.9,1.1,1.5c0.1,0.7-0.1,1.3-0.5,1.8l-27.1,31.4
					C1943.3,969.4,1942.6,969.7,1942,969.7z M1907.9,945.4l33.6,19.2l24.1-28l-33.6-19.2L1907.9,945.4z"/>
			</g>
			<g>
				<polygon class="st3" points="1898.5,952.8 1936.1,974.2 1909,1005.6 1871.5,984.1 				"/>
				<path d="M1909,1007.8c-0.4,0-0.8-0.1-1.1-0.3l-37.5-21.5c-0.6-0.3-1-0.9-1.1-1.5c-0.1-0.7,0.1-1.3,0.5-1.8l27.1-31.4
					c0.7-0.8,1.8-1,2.8-0.5l37.5,21.5c0.6,0.3,1,0.9,1.1,1.5c0.1,0.7-0.1,1.3-0.5,1.8l-27.1,31.4
					C1910.2,1007.5,1909.6,1007.8,1909,1007.8z M1874.9,983.6l33.6,19.2l24.1-28l-33.6-19.2L1874.9,983.6z"/>
			</g>
		</g>
		<g>
			<path d="M1850,806.3c-0.4,0-0.8-0.1-1.1-0.3c-10.3-5.9-13.8-19-8-29.4c2.8-5,7.5-8.6,13-10.1c5.5-1.5,11.3-0.8,16.2,2
				c0.4,0.2,0.8,0.5,1.1,0.7c1,0.7,1.3,2,0.6,3.1c-0.7,1-2,1.3-3.1,0.6c-0.3-0.2-0.6-0.4-0.9-0.5c-3.9-2.2-8.5-2.8-12.9-1.6
				c-4.4,1.2-8.1,4.1-10.3,8c-4.7,8.2-1.8,18.7,6.3,23.3c1.1,0.6,1.4,2,0.8,3C1851.5,805.9,1850.8,806.3,1850,806.3z"/>
			<path d="M1875.3,820.7c-0.4,0-0.8-0.1-1.1-0.3c-10.3-5.9-13.8-19-8-29.4c2.8-5,7.5-8.6,13-10.1c5.5-1.5,11.3-0.8,16.2,2
				c0.4,0.2,0.8,0.5,1.1,0.7c1,0.7,1.3,2,0.6,3.1c-0.7,1-2,1.3-3.1,0.6c-0.3-0.2-0.6-0.4-0.9-0.5c-3.9-2.2-8.5-2.8-12.9-1.6
				c-4.4,1.2-8.1,4.1-10.3,8c-4.7,8.2-1.8,18.7,6.3,23.3c1.1,0.6,1.4,2,0.8,3C1876.8,820.3,1876,820.7,1875.3,820.7z"/>
			<path d="M1900.5,835.2c-0.4,0-0.8-0.1-1.1-0.3c-10.3-5.9-13.8-19-8-29.4c2.8-5,7.5-8.6,13-10.1c5.5-1.5,11.3-0.8,16.2,2
				c0.4,0.2,0.8,0.5,1.1,0.7c1,0.7,1.3,2,0.6,3.1c-0.7,1-2,1.3-3.1,0.6c-0.3-0.2-0.6-0.4-0.9-0.5c-3.9-2.2-8.5-2.8-12.9-1.6
				c-4.4,1.2-8.1,4.1-10.3,8c-4.7,8.2-1.8,18.7,6.3,23.3c1.1,0.6,1.4,2,0.8,3C1902,834.8,1901.3,835.2,1900.5,835.2z"/>
			<path d="M1925.8,849.6c-0.4,0-0.8-0.1-1.1-0.3c-10.3-5.9-13.8-19-8-29.4c2.8-5,7.5-8.6,13-10.1c5.5-1.5,11.3-0.8,16.2,2
				c0.4,0.2,0.8,0.5,1.1,0.7c1,0.7,1.3,2,0.6,3.1c-0.7,1-2,1.3-3.1,0.6c-0.3-0.2-0.6-0.4-0.9-0.5c-3.9-2.2-8.5-2.8-12.9-1.6
				c-4.4,1.2-8.1,4.1-10.3,8c-4.7,8.2-1.8,18.7,6.3,23.3c1.1,0.6,1.4,2,0.8,3C1927.3,849.2,1926.6,849.6,1925.8,849.6z"/>
			<path d="M1951.1,864.1c-0.4,0-0.8-0.1-1.1-0.3c-10.3-5.9-13.8-19-8-29.4c2.8-5,7.5-8.6,13-10.1c5.5-1.5,11.3-0.8,16.2,2
				c0.4,0.2,0.8,0.5,1.1,0.7c1,0.7,1.3,2,0.6,3.1c-0.7,1-2,1.3-3.1,0.6c-0.3-0.2-0.6-0.4-0.9-0.5c-3.9-2.2-8.5-2.8-12.9-1.6
				c-4.4,1.2-8.1,4.1-10.3,8c-4.7,8.2-1.8,18.7,6.3,23.3c1.1,0.6,1.4,2,0.8,3C1952.6,863.7,1951.8,864.1,1951.1,864.1z"/>
			<path d="M1976.3,878.5c-0.4,0-0.8-0.1-1.1-0.3c-10.3-5.9-13.8-19-8-29.4c2.8-5,7.5-8.6,13-10.1c5.5-1.5,11.3-0.8,16.2,2
				c0.4,0.2,0.8,0.5,1.1,0.7c1,0.7,1.3,2,0.6,3.1c-0.7,1-2,1.3-3.1,0.6c-0.3-0.2-0.6-0.4-0.9-0.5c-3.9-2.2-8.5-2.8-12.9-1.6
				c-4.4,1.2-8.1,4.1-10.3,8c-4.7,8.2-1.8,18.7,6.3,23.3c1.1,0.6,1.4,2,0.8,3C1977.8,878.1,1977.1,878.5,1976.3,878.5z"/>
			<path d="M2000.2,892.1c-0.4,0-0.8-0.1-1.1-0.3c-10.3-5.9-13.8-19-8-29.4c2.8-5,7.5-8.6,13-10.1c5.5-1.5,11.3-0.8,16.2,2
				c6.5,3.7,10.5,10.4,10.8,17.9c0,1.2-0.9,2.2-2.1,2.3c-1.3,0.1-2.2-0.9-2.3-2.1c-0.2-6-3.4-11.3-8.6-14.2
				c-3.9-2.2-8.5-2.8-12.9-1.6c-4.4,1.2-8.1,4.1-10.3,8c-4.7,8.2-1.8,18.7,6.3,23.3c1.1,0.6,1.4,2,0.8,3
				C2001.7,891.7,2000.9,892.1,2000.2,892.1z"/>
		</g>
	</g>
	<g>
		<g>
			<g>
				<path class="st3" d="M1007,1991.4c0,0-76.6-167.9-32.7-385.5c0,0,118.7,99.5,75.9,385.5H1007z"/>
				<path d="M1050.3,1993.7H1007c-0.9,0-1.7-0.5-2-1.3c-0.8-1.7-76.4-171-32.8-386.8c0.2-0.8,0.7-1.4,1.4-1.7s1.5-0.1,2.2,0.4
					c1.2,1,30.4,25.9,54.6,86.4c22.3,55.6,44.2,152.9,22,301.2C1052.3,1992.9,1051.4,1993.7,1050.3,1993.7z M1008.5,1989.2h39.9
					c21.5-146,0-241.8-21.9-296.6c-19.5-48.8-42.7-74.5-50.7-82.3C936.1,1812.9,1001.6,1973.3,1008.5,1989.2z"/>
			</g>
			<path d="M1025.8,1976.2c0,0-0.1,0-0.1,0c-1.2-0.1-2.2-1.1-2.1-2.3c5.9-107.3-42.5-336.4-43-338.7c-0.2-1.2,0.5-2.4,1.7-2.6
				c1.2-0.2,2.4,0.5,2.6,1.7c0.5,2.3,49,232,43.1,339.9C1027.9,1975.2,1026.9,1976.2,1025.8,1976.2z"/>
		</g>
		<g>
			<g>
				<path class="st3" d="M1095.8,1719.3c0,0-98.7,178.3-39.3,255.4h31.8C1088.2,1974.7,1151.6,1835.4,1095.8,1719.3z"/>
				<path d="M1088.2,1977h-31.8c-0.7,0-1.3-0.3-1.8-0.9c-25.1-32.6-26.1-86-3-158.7c17.1-53.8,41.8-98.7,42.1-99.2
					c0.4-0.7,1.2-1.2,2-1.1c0.8,0,1.6,0.5,1.9,1.2c55.7,115.7-6.9,255.9-7.6,257.3C1089.8,1976.4,1089.1,1977,1088.2,1977z
					 M1057.5,1972.5h29.2c6.1-14.2,57.7-141.2,8.9-248.3C1081.9,1750.5,1005.8,1903.2,1057.5,1972.5z"/>
			</g>
			<path d="M1071.3,1981.7c-1.2,0-2.2-0.9-2.2-2.1c-2.9-73.6,21.9-233.7,22.1-235.3c0.2-1.2,1.3-2,2.5-1.8c1.2,0.2,2,1.3,1.8,2.5
				c-0.2,1.6-24.9,161.3-22.1,234.5C1073.5,1980.6,1072.6,1981.6,1071.3,1981.7C1071.3,1981.7,1071.3,1981.7,1071.3,1981.7z"/>
		</g>
		<g>
			<g>
				<path class="st3" d="M895.7,1785c0,0,84.1,28.7,114.5,198.5h-33.1C977.1,1983.4,908.1,1890.2,895.7,1785z"/>
				<path d="M1010.2,1985.7h-33.1c-0.7,0-1.4-0.3-1.8-0.9c-0.7-0.9-69.5-94.9-81.8-199.5c-0.1-0.8,0.2-1.5,0.8-2s1.4-0.6,2.1-0.4
					c0.9,0.3,21.9,7.7,46.8,36.2c22.8,26.1,53.4,75.8,69.2,164c0.1,0.7-0.1,1.3-0.5,1.8C1011.5,1985.4,1010.8,1985.7,1010.2,1985.7z
					 M978.3,1981.2h29.3c-26.7-144.8-93.3-185-109.2-192.7C911.1,1885,971.3,1971.5,978.3,1981.2z"/>
			</g>
			<path d="M992.1,1980.9c-1.1,0-2-0.8-2.2-1.8c-12.5-75.6-66.7-151.8-67.2-152.5c-0.7-1-0.5-2.4,0.5-3.1s2.4-0.5,3.1,0.5
				c0.5,0.8,55.3,77.8,68,154.4c0.2,1.2-0.6,2.3-1.8,2.6C992.4,1980.9,992.2,1980.9,992.1,1980.9z"/>
		</g>
		<path class="st4" d="M928.1,1970h207.4l4.7,98.1c1.1,24.1-18.1,44.2-42.1,44.2H979.6c-28.5,0-51.6-23.1-51.5-51.6L928.1,1970z"/>
	</g>
	<rect x="1341.6" y="422.3" class="st2" width="54.3" height="611.3"/>
	<path d="M1341.6,1035.8c-1.2,0-2.2-1-2.2-2.2V422.3c0-1.2,1-2.2,2.2-2.2s2.2,1,2.2,2.2v611.3
		C1343.8,1034.9,1342.8,1035.8,1341.6,1035.8z"/>
	<path d="M1395.9,1035.8c-1.2,0-2.2-1-2.2-2.2V422.3c0-1.2,1-2.2,2.2-2.2s2.2,1,2.2,2.2v611.3
		C1398.2,1034.9,1397.2,1035.8,1395.9,1035.8z"/>
	<g>
		<g>
			<polygon class="st3" points="1564.6,593.2 1781.5,656.2 1935.4,485 			"/>
			<path d="M1781.5,658.5c-0.2,0-0.4,0-0.6-0.1L1564,595.3c-0.9-0.3-1.6-1.1-1.6-2.1c0-1,0.7-1.8,1.6-2.1l370.8-108.1
				c0.9-0.3,2,0.1,2.5,1c0.5,0.8,0.4,1.9-0.2,2.7l-153.9,171.2C1782.7,658.2,1782.1,658.5,1781.5,658.5z M1572.5,593.2l208.2,60.6
				l147.8-164.4L1572.5,593.2z"/>
		</g>
		<g>
			<polygon class="st3" points="1672.7,694.9 1642.4,615.8 1882.1,514.7 1680.5,626.9 1725.9,640.1 			"/>
			<path d="M1672.7,697.2c-0.2,0-0.3,0-0.4,0c-0.7-0.2-1.3-0.7-1.6-1.4l-30.3-79.2c-0.4-1.1,0.1-2.4,1.2-2.8l239.7-101
				c1.1-0.5,2.3,0,2.8,1.1c0.5,1.1,0.1,2.3-0.9,2.9l-196.9,109.5l40.2,11.7c0.8,0.2,1.3,0.8,1.5,1.6c0.2,0.8,0,1.5-0.6,2.1
				l-53.2,54.9C1673.8,696.9,1673.3,697.2,1672.7,697.2z M1645.2,617l28.3,73.9l48.2-49.7l-41.8-12.2c-0.9-0.2-1.5-1-1.6-1.9
				s0.3-1.8,1.1-2.2l166-92.3L1645.2,617z"/>
		</g>
		<path d="M1675.4,673.3c-0.1,0-0.2,0-0.3,0c-1.2-0.1-2.1-1.2-1.9-2.5l5.1-44.2c0.1-1.2,1.2-2.1,2.4-2c1.2,0.1,2.1,1.2,1.9,2.5
			l-5.1,44.2C1677.5,672.4,1676.5,673.3,1675.4,673.3z"/>
	</g>
	<g>
		<path d="M1228.8,2122c-14.8,0-29.9-0.4-44.6-1.2c-1.2-0.1-2.2-1.1-2.1-2.3c0.1-1.2,1.1-2.1,2.3-2.1c14.7,0.8,29.6,1.2,44.4,1.2
			c76.4,0,151.9-10.7,224.5-31.9c1.2-0.3,2.4,0.3,2.7,1.5c0.3,1.2-0.3,2.4-1.5,2.8C1381.5,2111.2,1305.6,2122,1228.8,2122z"/>
		<path d="M1689.6,1977c-0.7,0-1.4-0.3-1.8-0.9c-0.7-1-0.5-2.4,0.5-3.1c21.8-15.2,43-31.8,63.2-49.1c0.9-0.8,2.3-0.7,3.1,0.2
			c0.8,0.9,0.7,2.3-0.2,3.1c-20.3,17.4-41.6,34-63.5,49.4C1690.5,1976.8,1690,1977,1689.6,1977z"/>
		<path d="M972.4,555.3c-0.9,0-1.8-0.6-2.1-1.5c-0.4-1.2,0.2-2.4,1.4-2.8c82.6-27.8,169.1-41.9,257.1-41.9c14.5,0,29.1,0.4,43.5,1.2
			c1.2,0.1,2.2,1.1,2.1,2.3c-0.1,1.2-1.1,2.2-2.3,2.1c-14.3-0.8-28.9-1.2-43.3-1.2c-87.5,0-173.6,14-255.7,41.6
			C972.8,555.2,972.6,555.3,972.4,555.3z"/>
		<path d="M905.7,581.1c-0.8,0-1.7-0.5-2-1.3c-0.5-1.1,0-2.4,1.1-2.9c9.3-4.1,18.8-8.1,28.3-11.8c1.1-0.5,2.4,0.1,2.9,1.2
			s-0.1,2.4-1.2,2.9c-9.4,3.7-18.9,7.7-28.2,11.7C906.3,581,906,581.1,905.7,581.1z"/>
		<path d="M450.1,1116c-0.2,0-0.4,0-0.5-0.1c-1.2-0.3-1.9-1.5-1.6-2.7c16.1-62.3,39.8-122.7,70.3-179.4c0.6-1.1,1.9-1.5,3-0.9
			c1.1,0.6,1.5,1.9,0.9,3c-30.4,56.5-53.9,116.5-69.9,178.4C452,1115.3,451.1,1116,450.1,1116z"/>
		<path d="M509.1,1677c-0.8,0-1.6-0.4-2-1.2c-56.2-112.4-84.7-233.6-84.7-360.3c0-57.8,6.1-115.4,18.2-171.4
			c0.3-1.2,1.4-1.9,2.6-1.7c1.2,0.3,2,1.4,1.7,2.6c-12,55.7-18.1,113-18.1,170.5c0,125.9,28.4,246.5,84.3,358.3c0.5,1.1,0.1,2.4-1,3
			C509.7,1676.9,509.4,1677,509.1,1677z"/>
		<path d="M587.5,966.5c-0.4,0-0.8-0.1-1.1-0.3c-1-0.6-1.4-2-0.8-3c27.6-45.8,60.3-88.7,97.3-127.5c0.8-0.9,2.2-0.9,3.1-0.1
			s0.9,2.2,0.1,3.1c-36.8,38.5-69.3,81.2-96.7,126.7C588.9,966.1,588.2,966.5,587.5,966.5z"/>
		<path d="M548.4,1636.9c-0.8,0-1.7-0.5-2-1.3c-42.6-94.2-64.3-194.7-64.3-298.9c0-117,27-228.8,80.3-332c0.6-1.1,1.9-1.5,3-1
			c1.1,0.6,1.5,1.9,1,3c-52.9,102.7-79.8,213.7-79.8,330c0,103.6,21.5,203.5,63.9,297.1c0.5,1.1,0,2.4-1.1,2.9
			C549.1,1636.8,548.7,1636.9,548.4,1636.9z"/>
		<g>
			<path d="M1645.2,1983c-0.6,0-1.1-0.2-1.5-0.6c-0.9-0.8-0.9-2.2-0.1-3.1l8.2-8.5c0.8-0.9,2.2-0.9,3.1-0.1c0.9,0.8,0.9,2.2,0.1,3.1
				l-8.2,8.5C1646.3,1982.8,1645.8,1983,1645.2,1983z"/>
			<path d="M1616.7,2012.8c-0.6,0-1.1-0.2-1.5-0.6c-0.9-0.8-0.9-2.2-0.1-3.1l8.2-8.5c0.8-0.9,2.2-0.9,3.1-0.1
				c0.9,0.8,0.9,2.2,0.1,3.1l-8.2,8.5C1617.8,2012.6,1617.2,2012.8,1616.7,2012.8z"/>
			<path d="M1624.7,1983.5c-0.6,0-1.1-0.2-1.6-0.6l-8.3-8.1c-0.9-0.9-0.9-2.3,0-3.1s2.3-0.9,3.1,0l8.3,8.1c0.9,0.9,0.9,2.3,0,3.1
				C1625.8,1983.3,1625.2,1983.5,1624.7,1983.5z"/>
			<path d="M1653.6,2012c-0.6,0-1.1-0.2-1.6-0.6l-8.3-8.1c-0.9-0.9-0.9-2.3,0-3.1s2.3-0.9,3.1,0l8.3,8.1c0.9,0.9,0.9,2.3,0,3.1
				C1654.7,2011.8,1654.2,2012,1653.6,2012z"/>
		</g>
		<g>
			<path d="M1988.7,1164c-0.6,0-1.1-0.2-1.5-0.6c-0.9-0.8-0.9-2.2-0.1-3.1l8.2-8.5c0.8-0.9,2.2-0.9,3.1-0.1c0.9,0.8,0.9,2.2,0.1,3.1
				l-8.2,8.5C1989.8,1163.8,1989.3,1164,1988.7,1164z"/>
			<path d="M1960.2,1193.8c-0.6,0-1.1-0.2-1.5-0.6c-0.9-0.8-0.9-2.2-0.1-3.1l8.2-8.5c0.8-0.9,2.2-0.9,3.1-0.1
				c0.9,0.8,0.9,2.2,0.1,3.1l-8.2,8.5C1961.3,1193.6,1960.7,1193.8,1960.2,1193.8z"/>
			<path d="M1968.2,1164.5c-0.6,0-1.1-0.2-1.6-0.6l-8.3-8.1c-0.9-0.9-0.9-2.3,0-3.1s2.3-0.9,3.1,0l8.3,8.1c0.9,0.9,0.9,2.3,0,3.1
				C1969.3,1164.3,1968.7,1164.5,1968.2,1164.5z"/>
			<path d="M1997.1,1193c-0.6,0-1.1-0.2-1.6-0.6l-8.3-8.1c-0.9-0.9-0.9-2.3,0-3.1s2.3-0.9,3.1,0l8.3,8.1c0.9,0.9,0.9,2.3,0,3.1
				C1998.3,1192.8,1997.7,1193,1997.1,1193z"/>
		</g>
	</g>
	<path d="M1095.3,1069c-0.6,0-1.2-0.2-1.7-0.8c-6-6.7-10.2-14.9-12.6-24.3c-0.3-1.2,0.4-2.4,1.6-2.7c1.2-0.3,2.4,0.4,2.7,1.6
		c2.2,8.7,6.1,16.2,11.6,22.4c0.8,0.9,0.7,2.3-0.2,3.1C1096.4,1068.8,1095.8,1069,1095.3,1069z M1081.1,1019.3c-0.1,0-0.1,0-0.1,0
		c-1.2-0.1-2.2-1.1-2.1-2.3c0.5-8.3,2-17.2,4.4-26.6c0.3-1.2,1.5-1.9,2.7-1.6c1.2,0.3,1.9,1.5,1.6,2.7c-2.3,9.1-3.8,17.7-4.3,25.8
		C1083.2,1018.4,1082.3,1019.3,1081.1,1019.3z M1093.9,967.9c-0.3,0-0.6,0-0.8-0.2c-1.1-0.5-1.7-1.8-1.2-2.9
		c3.2-8.1,7.1-16.3,11.3-24.3c0.6-1.1,1.9-1.5,3-0.9s1.5,1.9,0.9,3c-4.2,7.9-7.9,16-11.1,23.9
		C1095.6,967.4,1094.7,967.9,1093.9,967.9z M1118.6,920.9c-0.4,0-0.8-0.1-1.2-0.4c-1-0.7-1.3-2-0.6-3.1c4.1-6.1,8.2-11.6,12.1-16.3
		c1.4-1.7,2.9-3.4,4.3-5c0.8-0.9,2.2-1,3.1-0.2s1,2.2,0.2,3.1c-1.4,1.6-2.8,3.2-4.2,4.9c-3.8,4.6-7.8,9.9-11.8,15.9
		C1120,920.6,1119.3,920.9,1118.6,920.9z M1153.9,881.4c-0.6,0-1.2-0.3-1.7-0.8c-0.8-0.9-0.7-2.3,0.3-3.1c6.8-5.7,14-11.1,21.6-15.9
		c1-0.7,2.4-0.4,3.1,0.7c0.7,1,0.4,2.4-0.7,3.1c-7.4,4.8-14.5,10-21.1,15.6C1154.9,881.3,1154.4,881.4,1153.9,881.4z M1198.5,852.8
		c-0.8,0-1.6-0.5-2-1.3c-0.5-1.1-0.1-2.4,1-3c7.8-3.8,16.2-7.2,24.8-10.2c1.2-0.4,2.4,0.2,2.8,1.3c0.4,1.2-0.2,2.4-1.3,2.8
		c-8.4,3-16.6,6.4-24.3,10C1199.1,852.7,1198.8,852.8,1198.5,852.8z M1248.4,835c-1,0-1.9-0.7-2.2-1.7c-0.3-1.2,0.4-2.4,1.6-2.7
		c8.3-2.1,17.1-4,26.1-5.6c1.2-0.2,2.3,0.6,2.6,1.8c0.2,1.2-0.6,2.3-1.8,2.6c-8.9,1.6-17.6,3.4-25.8,5.5
		C1248.8,835,1248.6,835,1248.4,835z M1300.7,825.6c-1.1,0-2.1-0.8-2.2-2c-0.1-1.2,0.7-2.3,1.9-2.5c8.4-1,17.3-1.8,26.6-2.4
		c1.2-0.1,2.3,0.8,2.4,2.1s-0.8,2.3-2.1,2.4c-9.2,0.6-18,1.5-26.4,2.4C1300.9,825.6,1300.8,825.6,1300.7,825.6z M1486.6,822.6
		C1486.6,822.6,1486.6,822.6,1486.6,822.6c-10-0.1-19.5-0.3-26.6-0.6c-1.2,0-2.2-1.1-2.2-2.3c0-1.2,1-2.2,2.3-2.2
		c7.1,0.2,16.6,0.5,26.5,0.6c1.2,0,2.2,1,2.2,2.2C1488.8,821.6,1487.8,822.6,1486.6,822.6z M1513.2,822.4c-1.2,0-2.2-1-2.2-2.2
		c0-1.2,0.9-2.2,2.2-2.3c9.5-0.3,18.1-0.8,26.4-1.5c1.2-0.1,2.3,0.8,2.4,2c0.1,1.2-0.8,2.3-2,2.4
		C1531.5,821.6,1522.8,822.1,1513.2,822.4C1513.2,822.4,1513.2,822.4,1513.2,822.4z M1353.7,821.8c-1.2,0-2.2-0.9-2.2-2.1
		c0-1.2,0.9-2.2,2.1-2.3c8.2-0.3,16.9-0.5,26.6-0.6c0,0,0,0,0,0c1.2,0,2.2,1,2.2,2.2c0,1.2-1,2.2-2.2,2.2
		C1370.7,821.3,1362,821.5,1353.7,821.8C1353.8,821.8,1353.8,821.8,1353.7,821.8z M1433.5,821.2
		C1433.4,821.2,1433.4,821.2,1433.5,821.2c-7-0.2-12.4-0.3-17.2-0.3l-0.4-2.2v2.2l-9,0l0,0c-1.2,0-2.2-1-2.2-2.2
		c0-1.2,1-2.2,2.2-2.2l9,0h0.4c4.8,0,10.3,0.1,17.2,0.3c1.2,0,2.2,1,2.2,2.3C1435.7,820.3,1434.7,821.2,1433.5,821.2z M1566.1,817.5
		c-1.1,0-2-0.8-2.2-1.8c-0.2-1.2,0.6-2.3,1.8-2.6c9.2-1.6,17.8-3.7,25.6-6.1c1.2-0.4,2.4,0.3,2.8,1.5c0.4,1.2-0.3,2.4-1.5,2.8
		c-8,2.5-16.8,4.5-26.1,6.2C1566.4,817.5,1566.2,817.5,1566.1,817.5z M1616.5,801.3c-0.8,0-1.6-0.4-2-1.2c-0.6-1.1-0.2-2.4,0.9-3
		c8.1-4.3,15.2-9.3,21.1-14.9c0.9-0.8,2.3-0.8,3.1,0.1s0.8,2.3-0.1,3.1c-6.2,5.9-13.7,11.2-22.1,15.6
		C1617.2,801.2,1616.9,801.3,1616.5,801.3z M1654.1,765c-0.3,0-0.7-0.1-1-0.3c-1.1-0.6-1.5-1.9-0.9-3c3.9-7.3,6.7-15.5,8.4-24.4
		c0.2-1.2,1.4-2,2.6-1.8s2,1.4,1.8,2.6c-1.8,9.3-4.7,17.9-8.8,25.6C1655.7,764.6,1654.9,765,1654.1,765z"/>
</g>
</svg>
